<svg width="1400" height="660" viewBox="0 0 1400 660" fill="none" xmlns="http://www.w3.org/2000/svg">
<path d="M1300 0H0V660H1400V100C1400 44.7715 1355.23 0 1300 0Z" fill="#0F264C"/>
<g clip-path="url(#clip0_635_125)">
<path opacity="0.2" d="M-215 319.609C-165.999 255.887 -36.2115 131.63 90.9269 144.375C249.85 160.305 -52.1039 459 90.9269 459C233.958 459 301.5 92.6007 404.8 92.6007C508.1 92.6007 289.581 363.418 404.8 379.348C520.019 395.278 615.373 -2.9817 742.512 -6.9643C869.65 -10.9469 611.4 319.609 818 319.609" stroke="url(#paint0_linear_635_125)" stroke-width="2"/>
</g>
<defs>
<linearGradient id="paint0_linear_635_125" x1="301.5" y1="103.318" x2="301.5" y2="561.71" gradientUnits="userSpaceOnUse">
<stop stop-color="#F37753"/>
<stop offset="1" stop-color="white" stop-opacity="0"/>
</linearGradient>
<clipPath id="clip0_635_125">
<rect width="817" height="457" fill="white" transform="translate(1 3)"/>
</clipPath>
</defs>
</svg>
