<svg width="1400" height="660" viewBox="0 0 1400 660" fill="none" xmlns="http://www.w3.org/2000/svg">
<mask id="mask0_523_2" style="mask-type:alpha" maskUnits="userSpaceOnUse" x="0" y="0" width="1400" height="660">
<path d="M1300 0H0V660H1400V100C1400 44.7715 1355.23 0 1300 0Z" fill="#0F264C"/>
</mask>
<g mask="url(#mask0_523_2)">
<path opacity="0.2" d="M-216 316.609C-166.999 252.887 -37.2115 128.63 89.9269 141.375C248.85 157.305 -53.1039 456 89.9269 456C232.958 456 300.5 89.6007 403.8 89.6007C507.1 89.6007 288.581 360.418 403.8 376.348C519.019 392.278 614.373 -5.9817 741.512 -9.9643C868.65 -13.9469 610.4 316.609 817 316.609" stroke="url(#paint0_linear_523_2)" stroke-width="2"/>
</g>
<defs>
<linearGradient id="paint0_linear_523_2" x1="300.5" y1="100.318" x2="300.5" y2="558.71" gradientUnits="userSpaceOnUse">
<stop stop-color="#F37753"/>
<stop offset="1" stop-color="white" stop-opacity="0"/>
</linearGradient>
</defs>
</svg>
