<svg width="382" height="209" viewBox="0 0 382 209" fill="none" xmlns="http://www.w3.org/2000/svg">
<path d="M379.072 166.983C377.14 158.134 373.951 149.766 369.7 142.071C369.12 141.013 368.443 139.859 367.767 138.801C362.839 130.625 356.752 123.315 349.699 116.967C348.829 116.101 347.863 115.331 346.897 114.562C339.36 108.31 330.76 103.212 321.485 99.5572C320.325 99.0762 319.166 98.6915 318.006 98.3068C308.73 95.0365 298.682 93.209 288.343 93.0166C287.763 93.0166 287.087 93.0166 286.507 93.0166C285.927 93.0166 285.251 93.0166 284.671 93.0166C274.236 93.209 264.284 95.0365 255.008 98.3068C253.848 98.6915 252.689 99.1724 251.529 99.5572C242.254 103.212 233.654 108.31 226.118 114.562C225.151 115.331 224.185 116.197 223.316 116.967C216.262 123.315 210.078 130.625 205.247 138.801C204.571 139.859 203.991 141.013 203.315 142.071C199.063 149.766 195.875 158.134 193.942 166.983C193.652 168.233 193.459 169.483 193.169 170.734C192.203 176.12 191.72 181.603 191.72 187.181H381.198C381.198 181.603 380.715 176.024 379.748 170.734C379.555 169.483 379.362 168.233 379.072 166.983Z" fill="#0F264C"/>
<path d="M14.627 173.478C14.627 192.983 25.857 208.742 39.6687 208.742H64.7104C78.522 208.742 89.623 192.854 89.623 173.478C89.623 153.973 78.3929 138.214 64.5813 138.214C64.3231 138.214 64.194 138.214 63.9359 138.214H39.6687C25.7279 138.214 14.627 154.102 14.627 173.478Z" fill="#402B2B"/>
<path d="M210.828 173.09C210.828 192.595 222.058 208.354 235.87 208.354H260.912C274.723 208.354 285.824 192.466 285.824 173.09C285.824 153.585 274.594 137.826 260.782 137.826C260.524 137.826 260.395 137.826 260.137 137.826H235.87C221.929 137.826 210.828 153.585 210.828 173.09Z" fill="#F48767"/>
<path d="M12.9492 170.12L113.761 169.861L102.144 163.015L25.8573 163.144L12.9492 170.12Z" fill="#402B2B"/>
<path d="M-82.1836 112.638L-82.0545 177.353L-0.217194 177.224L25.8571 163.145L102.144 163.015L125.637 176.966L292.151 176.578C294.862 176.578 297.056 174.383 297.056 171.67L296.927 111.863L-82.1836 112.638Z" fill="#F36F49"/>
<path d="M96.2075 127.363L226.837 127.105L226.579 8.65453C226.579 3.87517 222.707 0 217.802 0L95.8203 0.25836L96.2075 127.363Z" fill="#F48767"/>
<path d="M-107.483 127.88L96.0775 127.493L95.8194 0.387695L-99.0928 0.775195C-103.869 0.775195 -107.741 4.65034 -107.741 9.55887L-107.483 127.88Z" fill="#F06A5B"/>
<path d="M194.307 173.09C194.307 192.595 183.206 208.354 169.394 208.354H144.482V196.47C135.317 196.47 127.83 186.007 127.83 173.09C127.83 160.173 135.188 149.71 144.352 149.71V137.826H169.265C183.077 137.955 194.178 153.714 194.307 173.09Z" fill="#F48767"/>
<path d="M123.83 173.349C123.83 189.366 132.995 202.284 144.354 202.154C155.713 202.154 164.749 189.237 164.749 173.22C164.749 157.203 155.584 144.285 144.225 144.415C132.995 144.415 123.83 157.332 123.83 173.349Z" fill="#F48767"/>
<path d="M144.351 192.337C151.838 192.337 157.776 183.811 157.776 173.219C157.776 162.627 151.709 154.231 144.222 154.231C136.736 154.231 130.798 162.756 130.798 173.348C130.798 183.94 136.865 192.337 144.351 192.337ZM144.351 161.981C148.74 161.981 152.354 167.019 152.354 173.219C152.354 179.419 148.74 184.586 144.351 184.586C139.963 184.586 136.348 179.549 136.348 173.348C136.348 167.019 139.834 161.981 144.351 161.981Z" fill="#F7A58D"/>
<path d="M144.352 208.483C158.164 208.483 169.265 192.595 169.265 173.219C169.265 153.844 158.035 137.956 144.223 137.956C130.412 137.956 119.311 153.844 119.311 173.219C119.311 192.595 130.67 208.613 144.352 208.483ZM144.223 144.414C155.582 144.414 164.747 157.331 164.747 173.219C164.747 189.237 155.711 202.154 144.352 202.154C132.993 202.154 123.828 189.237 123.828 173.349C123.828 157.331 132.993 144.414 144.223 144.414Z" fill="#F7A58D"/>
<path d="M140.867 173.22C140.867 170.507 142.416 168.44 144.223 168.44C146.03 168.44 147.579 170.636 147.708 173.22C147.708 175.932 146.16 177.999 144.352 177.999C142.416 178.128 140.867 175.932 140.867 173.22Z" fill="#F48766"/>
<path d="M313.319 76.5993C313.319 77.116 313.707 77.5035 314.094 77.6326C315.127 77.891 318.999 77.891 320.161 77.5035C320.677 77.3743 321.193 76.9868 321.193 76.3409C321.581 66.0072 321.581 55.9318 321.193 46.3731C321.193 45.7272 320.677 45.3397 320.161 45.2105C318.87 44.823 314.352 44.5646 312.932 45.0813C312.416 45.2105 312.029 45.7272 312.029 46.2439C311.77 56.061 312.158 66.1364 313.319 76.5993Z" fill="#F69276"/>
<path d="M306.996 85.7701C307.125 85.7701 307.254 85.7701 307.512 85.641L316.29 81.2491C318.355 80.2157 319.646 78.149 319.646 75.8239L319.517 43.4017C319.517 42.11 318.484 41.0767 317.193 41.0767H293.055C292.41 41.0767 292.022 41.5933 292.022 42.11C292.022 42.7559 292.539 43.1434 293.055 43.1434H317.193C317.322 43.1434 317.322 43.2726 317.322 43.2726L317.451 75.6947C317.451 77.2448 316.548 78.5365 315.257 79.1824L306.479 83.5742C305.963 83.8326 305.705 84.4784 305.963 84.9951C306.221 85.641 306.609 85.7701 306.996 85.7701Z" fill="#F69276"/>
<path d="M113.761 127.105C113.761 127.105 117.117 127.105 122.281 127.105H142.805C158.165 127.105 161.779 134.726 171.202 153.456L201.02 153.326C201.02 153.326 201.02 151.131 201.02 147.385L314.869 147.126C315.386 137.697 316.418 118.579 316.418 100.495C316.418 99.8494 316.418 99.3327 316.418 98.6868C316.418 93.52 315.515 87.8364 313.966 82.1528C307.899 59.9353 292.538 36.2968 286.213 27.6423C284.148 24.8005 282.341 22.3463 280.792 20.1504C276.403 14.3376 273.434 11.3667 267.884 11.3667L129.896 11.7542C127.057 11.7542 124.475 13.6918 123.701 16.4044C111.825 60.0645 113.632 93.2616 113.761 127.105ZM230.063 27.1256C229.934 26.4798 230.45 25.9631 231.096 25.9631L273.047 25.8339C275.5 25.8339 277.952 27.1257 279.501 29.3216C295.894 51.6683 302.478 72.0774 304.93 83.8321L307.512 96.2326C307.899 98.041 306.737 99.4619 304.93 99.4619H294.733C293.055 99.4619 291.248 98.6868 289.957 97.3951L269.046 77.3735C266.722 75.1775 263.624 73.8859 260.655 73.8859H235.614L230.063 27.1256Z" fill="#F36F49"/>
<path d="M208.376 82.541C209.28 86.6745 210.312 90.9372 211.216 95.4583C211.861 98.5584 214.572 100.754 217.67 100.883C258.459 102.304 292.279 102.434 316.417 100.625C316.417 99.9793 316.417 99.4626 316.417 98.8167C316.417 93.6498 315.513 87.9663 313.964 82.2827L208.376 82.541Z" fill="#F6977C"/>
<path d="M132.993 26.0926L174.945 25.9634C177.397 25.9634 179.592 27.2551 180.753 29.451C192.5 51.7978 194.952 72.2069 194.952 83.9616V96.3621C194.952 98.1705 193.532 99.5914 191.725 99.5914H181.528C179.85 99.5914 178.172 98.8164 177.139 97.5246L160.359 77.503C158.422 75.3071 155.712 73.8862 152.743 74.0154H127.701L131.703 27.2551C131.703 26.6092 132.219 26.0926 132.993 26.0926Z" fill="#F36F49"/>
<path d="M113.761 127.105C113.761 127.105 117.117 127.105 122.281 127.105H142.805C158.165 127.105 161.779 134.726 171.202 153.456L201.02 153.326C201.02 153.326 201.02 151.131 201.02 147.385L314.869 147.126C315.386 137.697 316.418 118.579 316.418 100.495C292.28 102.304 258.332 102.304 217.671 100.754C214.574 100.624 211.863 98.4285 211.217 95.3284C210.314 90.8074 209.281 86.4155 208.378 82.4112C202.827 58.7728 196.76 41.8512 188.757 23.5088C188.112 22.088 189.145 20.4087 190.694 20.4087L280.792 20.1504C276.403 14.3376 273.434 11.3667 267.884 11.3667L129.896 11.7542C127.057 11.7542 124.475 13.6918 123.701 16.4044C111.825 60.0645 113.632 93.2616 113.761 127.105ZM127.573 74.015L131.574 27.2548C131.574 26.609 132.22 26.0923 132.865 26.0923L174.817 25.9631C177.269 25.9631 179.463 27.2548 180.625 29.4508C192.372 51.7975 194.824 72.2066 194.824 83.9612V96.3617C194.824 98.1702 193.404 99.591 191.597 99.591H181.4C179.722 99.591 178.044 98.816 177.011 97.5243L160.23 77.5026C158.294 75.3067 155.584 73.8859 152.615 74.015H127.573Z" fill="#F7A58D"/>
<path d="M118.794 123.747C118.794 125.684 120.343 127.105 122.279 127.105H142.803C158.164 127.105 161.778 134.726 171.201 153.456L201.019 153.327C201.019 153.327 201.019 151.131 201.019 147.385L200.889 95.0705C200.889 69.1069 196.243 52.7021 183.98 26.7386C182.173 22.8634 178.171 20.4092 173.912 20.4092L129.508 20.5383C128.475 20.5383 127.701 21.1842 127.442 22.0884C118.665 55.4147 118.665 109.667 118.794 123.747ZM127.572 74.0155L131.573 27.2553C131.573 26.6094 132.218 26.0927 132.864 26.0927L174.815 25.9636C177.268 25.9636 179.462 27.2553 180.624 29.4512C192.37 51.7979 194.823 72.2071 194.823 83.9617V96.3622C194.823 98.1706 193.403 99.5915 191.596 99.5915H181.398C179.72 99.5915 178.042 98.8165 177.01 97.5247L160.229 77.5031C158.293 75.3072 155.582 73.8863 152.613 74.0155H127.572Z" fill="#F58A6B"/>
<path d="M133.252 27.6426L174.945 27.5135C176.752 27.5135 178.43 28.5468 179.334 30.0969C191.467 53.2187 193.403 73.757 193.403 83.8324V96.2329C193.403 97.1371 192.629 97.9122 191.725 97.9122H181.528C180.237 97.9122 179.075 97.3955 178.301 96.4913L161.52 76.4696C159.326 73.8862 156.099 72.3361 152.614 72.3361H129.379L133.252 27.6426ZM132.993 26.0926C132.348 26.0926 131.703 26.6092 131.703 27.2551L127.701 74.0154H152.743C155.712 74.0154 158.422 75.3071 160.359 77.503L177.139 97.5246C178.172 98.8164 179.85 99.5914 181.528 99.5914H191.725C193.532 99.5914 194.952 98.1705 194.952 96.3621V83.9616C194.952 72.2069 192.5 51.7978 180.753 29.451C179.592 27.2551 177.397 25.9634 174.945 25.9634L132.993 26.0926Z" fill="#F7A58D"/>
<path d="M200.892 122.713V147.385L245.941 147.256C245.425 140.797 244.263 134.597 242.327 128.784C241.552 126.459 239.616 124.78 237.163 124.392C227.224 123.23 214.574 122.713 200.892 122.713ZM292.023 147.256H314.354C314.741 141.83 315.128 133.047 315.515 123.1C310.094 123.359 305.06 123.875 300.542 124.521C298.09 124.909 296.153 126.588 295.379 128.913C293.572 134.597 292.539 140.797 292.023 147.256Z" fill="#F6977C"/>
<path d="M201.02 172.186L305.446 171.928C312.545 171.928 318.354 166.115 318.354 159.011V156.815C318.354 154.748 316.676 153.198 314.74 153.198L201.149 153.456L201.02 172.186Z" fill="#F6977C"/>
<path d="M181.787 172.187H201.02V153.457H171.461L174.688 166.503C175.462 169.861 178.431 172.187 181.787 172.187Z" fill="#F7A58D"/>
<path d="M135.833 103.855C140.222 103.984 148.741 104.888 148.741 107.988C148.741 111.088 141.255 112.122 135.188 112.122C129.121 112.122 128.475 108.763 127.959 107.342C127.572 105.921 127.185 103.725 135.833 103.855Z" fill="#F6977C"/>
<path d="M136.221 107.213C134.156 107.213 131.961 106.567 130.929 105.534C131.703 105.146 132.865 104.759 134.672 104.759C138.028 104.759 143.45 105.146 146.289 106.438C145.902 106.696 144.869 107.213 143.191 107.213C141.126 107.213 138.415 107.213 136.221 107.213Z" fill="#F47B58"/>
<path d="M144.869 109.667C145.644 109.667 146.031 109.797 146.16 109.926C143.837 110.959 139.577 111.347 137.512 111.347C134.543 111.347 132.477 111.347 131.832 110.701C132.348 110.313 133.51 109.667 134.672 109.667C136.221 109.797 143.837 109.667 144.869 109.667Z" fill="#F47B58"/>
<path d="M201.02 147.514C201.02 151.26 201.02 153.456 201.02 153.456L314.482 153.198C314.482 153.198 314.611 151.002 314.869 147.256L201.02 147.514Z" fill="#F58A6B"/>
<g opacity="0.2">
<path d="M249.942 121.421V146.093L288.021 145.964V121.292C288.021 118.321 285.311 115.996 281.954 115.996H255.88C252.653 116.125 249.942 118.58 249.942 121.421Z" fill="#F16036"/>
</g>
<path d="M300.8 145.189H308.803C310.868 145.189 312.676 143.51 312.676 141.314V137.31C312.676 135.243 310.998 133.435 308.803 133.435H300.8C298.735 133.435 296.928 135.114 296.928 137.31V141.314C296.928 143.51 298.735 145.189 300.8 145.189Z" fill="white"/>
<path d="M225.027 145.448H233.03C235.095 145.448 236.902 143.769 236.902 141.573V137.569C236.902 135.502 235.224 133.693 233.03 133.693H225.027C222.961 133.693 221.154 135.373 221.154 137.569V141.573C221.154 143.64 222.832 145.448 225.027 145.448Z" fill="white"/>
<path d="M173.395 76.858C173.395 77.3746 173.783 77.7622 174.17 77.8913C179.204 78.408 184.496 78.408 189.918 77.7622C190.563 77.633 190.951 77.2455 190.951 76.5996C191.338 66.2659 191.338 56.1905 190.951 46.6318C190.951 45.9859 190.434 45.5984 189.918 45.4693C184.367 44.8234 178.817 44.8234 173.008 45.4693C172.492 45.5984 172.105 46.1151 172.105 46.6318C171.717 56.3197 172.234 66.395 173.395 76.858Z" fill="#F7A58D"/>
<path d="M193.402 86.0289C193.789 86.0289 194.177 85.7706 194.306 85.3831C194.564 84.8664 194.306 84.2205 193.789 83.9622L185.012 79.6995C183.721 79.0536 182.818 77.6327 182.818 76.2118L182.688 43.7897C182.688 43.6605 182.818 43.6605 182.818 43.6605H188.239C188.884 43.6605 189.272 43.1438 189.272 42.6271C189.272 41.9813 188.755 41.5938 188.239 41.5938H182.818C181.527 41.5938 180.494 42.6271 180.494 43.9188L180.623 76.341C180.623 78.6661 181.914 80.7329 183.979 81.7663L192.757 86.0289C193.144 86.0289 193.273 86.0289 193.402 86.0289Z" fill="#F69276"/>
<path d="M252.604 173.716L289.134 173.636L289.11 162.657L252.58 162.736L252.604 173.716Z" fill="#F8B4A0"/>
<path opacity="0.6" d="M188.508 23.9C196.511 42.2424 202.449 59.1639 208.128 82.8023L313.716 82.544C307.65 60.3264 292.289 36.688 285.964 28.0335C283.899 25.1917 282.092 22.7374 280.543 20.5415L190.444 20.7999C188.895 20.929 187.862 22.4791 188.508 23.9Z" fill="url(#paint0_linear_523_86)"/>
<path d="M125.325 185.603C123.427 176.862 120.297 168.596 116.123 160.995C115.554 159.949 114.889 158.809 114.225 157.764C109.387 149.688 103.411 142.467 96.4854 136.196C95.6316 135.341 94.683 134.581 93.7343 133.821C86.3347 127.645 77.8916 122.61 68.7844 118.999C67.646 118.524 66.5077 118.144 65.3693 117.764C56.2621 114.534 46.396 112.729 36.2453 112.539C35.6761 112.539 35.012 112.539 34.4428 112.539C33.8736 112.539 33.2096 112.539 32.6404 112.539C22.3948 112.729 12.6236 114.534 3.51638 117.764C2.37798 118.144 1.2396 118.619 0.101208 118.999C-9.00596 122.61 -17.4491 127.645 -24.8487 133.821C-25.7973 134.581 -26.746 135.436 -27.5998 136.196C-34.525 142.467 -40.5965 149.688 -45.3398 157.764C-46.0039 158.809 -46.5731 159.949 -47.2371 160.995C-51.4113 168.596 -54.5418 176.862 -56.4392 185.603C-56.7237 186.838 -56.9135 188.073 -57.1981 189.308C-58.1468 194.629 -58.6211 200.044 -58.6211 205.555H127.412C127.412 200.044 126.938 194.534 125.989 189.308C125.799 188.073 125.609 186.838 125.325 185.603Z" fill="#FCDDD4"/>
<defs>
<linearGradient id="paint0_linear_523_86" x1="237.764" y1="0.781219" x2="288.316" y2="121.884" gradientUnits="userSpaceOnUse">
<stop stop-color="#F7A58D"/>
<stop offset="0.926161" stop-color="white"/>
</linearGradient>
</defs>
</svg>
